<!DOCTYPE svg PUBLIC "-//W3C//DTD SVG 1.1//EN" "http://www.w3.org/Graphics/SVG/1.1/DTD/svg11.dtd">
<!-- Uploaded to: SVG Repo, www.svgrepo.com, Transformed by: SVG Repo Mixer Tools -->
<svg fill="#87ceeb" height="800px" width="800px" version="1.1" id="Capa_1" xmlns="http://www.w3.org/2000/svg" xmlns:xlink="http://www.w3.org/1999/xlink" viewBox="0 0 612 612" xml:space="preserve">
<g id="SVGRepo_bgCarrier" stroke-width="0"/>
<g id="SVGRepo_tracerCarrier" stroke-linecap="round" stroke-linejoin="round"/>
<g id="SVGRepo_iconCarrier"> <g> <path d="M569.753,360.073c-12.658-4.041-25.24-8.299-37.768-12.705V311.86c0-0.048,0-0.096,0-0.144v-47.144v-28.615v-32.011 c0-5.904-3.456-11.26-8.835-13.694l-95.236-43.089c-1.948-0.881-4.059-1.337-6.197-1.337h-92.656 c-4.732,0-9.185,2.227-12.026,6.012l-45.094,60.126c-3.416,4.555-3.964,10.649-1.418,15.741c2.545,5.092,7.75,8.309,13.444,8.309 h134.472l83.482,38.21v15.117l-78.661-32.692c-7.659-3.184-16.462,0.445-19.647,8.111c-3.187,7.667,0.445,16.463,8.111,19.649 l90.197,37.486v14.591c-35.853-13.327-71.352-27.632-106.891-41.747C270.471,245.271,11.606,181.916,1.109,209.877 c-10.504,27.961,56.462,94.022,80.627,142.503c33.618,67.456-23.344,60.643-25.428,113.792c120.295,0,240.589,0,360.881,0 c59.817,0,119.632,0,179.449,0c4.992-5.055,0.614-33.908,3.271-43.377C613.881,372.974,627.197,378.416,569.753,360.073z"/> </g> </g>
</svg>