<?xml version="1.0" encoding="UTF-8" standalone="no"?>
<!DOCTYPE svg PUBLIC "-//W3C//DTD SVG 1.1//EN"
  "http://www.w3.org/Graphics/SVG/1.1/DTD/svg11.dtd">
<svg viewBox="0 0 100 100" xmlns="http://www.w3.org/2000/svg">
  <style>
    /* Add your CSS styles here */
    line {
      stroke: #ffffff99;
      stroke-width: 0.25;
    }
  </style>
  <rect x="0" y="0" width="100" height="100" fill="none" stroke="#ffffff99" stroke-width="0.5"/>
  <g>
    <!-- Vertical lines -->
    <line x1="10" y1="0" x2="10" y2="100"/>
    <line x1="20" y1="0" x2="20" y2="100"/>
    <line x1="30" y1="0" x2="30" y2="100"/>
    <line x1="40" y1="0" x2="40" y2="100"/>
    <line x1="50" y1="0" x2="50" y2="100"/>
    <line x1="60" y1="0" x2="60" y2="100"/>
    <line x1="70" y1="0" x2="70" y2="100"/>
    <line x1="80" y1="0" x2="80" y2="100"/>
    <line x1="90" y1="0" x2="90" y2="100"/>

    <!-- Horizontal lines -->
    <line x1="0" y1="10" x2="100" y2="10"/>
    <line x1="0" y1="20" x2="100" y2="20"/>
    <line x1="0" y1="30" x2="100" y2="30"/>
    <line x1="0" y1="40" x2="100" y2="40"/>
    <line x1="0" y1="50" x2="100" y2="50"/>
    <line x1="0" y1="60" x2="100" y2="60"/>
    <line x1="0" y1="70" x2="100" y2="70"/>
    <line x1="0" y1="80" x2="100" y2="80"/>
    <line x1="0" y1="90" x2="100" y2="90"/>
  </g>
</svg>